PathFileType	4	(X/Y/Z)	..\data\2014022\dynamic\2014022_C4_04.trc
DataRate	CameraRate	NumFrames	NumMarkers	Units	OrigDataRate	OrigDataStartFrame	OrigNumFrames
100.000000	100.000000	4	52	mm	100.000000	64	173
Frame#	Time	L_IAS			L_IPS			R_IPS			R_IAS			L_FTC			L_FLE			L_FME			L_FAX			L_TTC			L_FAL			L_TAM			L_FCC			L_FM1			L_FM2			L_FM5			R_FTC			R_FLE			R_FME			R_FAX			R_TTC			R_FAL			R_TAM			R_FCC			R_FM1			R_FM2			R_FM5			CV7			TV10			SXS			SJN			L_SIA			L_SRS			L_SAA			L_SAE			L_HLE			L_HME			L_UOA			L_RSP			L_UHE			L_HM2			L_HM5			R_SIA			R_SRS			R_SAA			R_SAE			R_HLE			R_HME			R_UOA			R_RSP			R_UHE			R_HM2			R_HM5			
		X1	Y1	Z1	X2	Y2	Z2	X3	Y3	Z3	X4	Y4	Z4	X5	Y5	Z5	X6	Y6	Z6	X7	Y7	Z7	X8	Y8	Z8	X9	Y9	Z9	X10	Y10	Z10	X11	Y11	Z11	X12	Y12	Z12	X13	Y13	Z13	X14	Y14	Z14	X15	Y15	Z15	X16	Y16	Z16	X17	Y17	Z17	X18	Y18	Z18	X19	Y19	Z19	X20	Y20	Z20	X21	Y21	Z21	X22	Y22	Z22	X23	Y23	Z23	X24	Y24	Z24	X25	Y25	Z25	X26	Y26	Z26	X27	Y27	Z27	X28	Y28	Z28	X29	Y29	Z29	X30	Y30	Z30	X31	Y31	Z31	X32	Y32	Z32	X33	Y33	Z33	X34	Y34	Z34	X35	Y35	Z35	X36	Y36	Z36	X37	Y37	Z37	X38	Y38	Z38	X39	Y39	Z39	X40	Y40	Z40	X41	Y41	Z41	X42	Y42	Z42	X43	Y43	Z43	X44	Y44	Z44	X45	Y45	Z45	X46	Y46	Z46	X47	Y47	Z47	X48	Y48	Z48	X49	Y49	Z49	X50	Y50	Z50	X51	Y51	Z51	X52	Y52	Z52	

65	0.64	-329.8011474609376	919.3721313476565	164.9149780273438	-520.6970214843751	939.8062744140627	236.7385101318359	-519.0477905273439	943.9421386718752	345.4859008789062	-330.2217712402345	931.797790527344	412.4067077636719	-423.1075744628907	859.0701904296877	102.469009399414	-511.499969482422	453.2183532714845	153.4255676269531	-538.5960083007814	455.7506103515626	289.1376953125	-562.1832275390626	423.3780517578126	149.5234069824218	-510.7062988281251	371.9469604492188	209.0752258300781	-765.4550170898439	135.7762908935547	188.2952880859374	-747.6231079101564	139.0744171142578	273.9523010253906	-822.3413085937502	117.36962890625	235.5822601318359	-682.2550048828126	18.67517852783203	296.1916198730469	-662.7778930664064	32.18269729614259	236.7186737060547	-704.3182373046876	23.80513572692871	184.1031646728515	-410.2416076660158	860.300476074219	473.6488037109376	-293.7848205566407	451.6451416015626	417.4648742675782	-292.7471008300782	454.6215209960939	278.9238586425781	-298.9671020507814	398.3819885253907	417.7843017578126	-231.9383392333986	403.6377563476564	366.6020812988282	-214.3567352294923	64.57743072509767	367.5270080566407	-198.0434570312501	77.20031738281251	282.5004577636719	-244.707015991211	16.23736953735352	320.420654296875	-66.72436523437504	34.06541442871094	278.2951049804688	-60.55534744262701	47.25801086425782	334.2549133300782	-96.09966278076179	26.91595649719239	384.6674194335939	-457.8529663085939	1421.075439453125	265.3191528320312	-540.1128540039064	1202.0185546875	262.3440856933594	-309.7025146484376	1125.281372070313	280.0092163085938	-344.191864013672	1344.2177734375	275.8790283203125	-543.6369018554689	1233.939575195313	177.5778656005859	-502.594207763672	1374.06591796875	201.1787567138672	-461.9298095703126	1379.543334960938	133.788330078125	-405.6920166015626	1363.438110351563	91.65097808837888	-360.7134399414063	1049.093017578125	37.6679763793945	-371.1047973632813	1035.684814453125	125.5947113037109	-362.6296997070313	1011.234313964844	71.63325500488278	-138.3559265136719	941.0218505859377	110.9011917114258	-173.4779510498047	903.0857543945315	53.39822006225585	-61.47894668579104	906.6433105468752	118.0183029174805	-121.5030975341797	836.0495605468752	71.4534912109375	-555.2682495117189	1232.779052734375	346.0412902832031	-507.0789184570314	1372.996459960938	334.9136352539062	-481.0348205566408	1373.536743164063	416.5539550781251	-437.615692138672	1371.399658203125	453.3884887695313	-500.792938232422	1060.5869140625	495.2883911132813	-478.6870117187502	1046.050659179688	414.0468444824219	-507.3096313476564	1040.603881835938	460.3448486328126	-425.8312377929689	828.3223266601565	542.8554687500001	-499.3739624023439	833.3645019531252	537.81103515625	-420.012664794922	738.5905761718751	564.5671386718751	-511.3698730468752	752.8344116210939	525.1994018554688	
66	0.65	-316.2475280761719	920.434265136719	166.6141204833984	-506.8412475585939	941.596862792969	236.5672912597656	-505.6207580566408	946.4477539062502	345.6870422363281	-316.7635192871095	934.8370361328127	413.2540893554688	-408.044158935547	859.4508056640627	103.3555297851562	-491.1164855957032	452.344207763672	153.5772247314453	-516.4255981445314	453.3521728515626	289.3156127929688	-542.5286254882814	423.8189086914064	149.4562225341797	-491.3186950683595	370.4292602539063	207.8535766601562	-755.4293823242189	144.0751647949219	185.9728546142578	-737.2614135742189	145.6461181640625	271.4263305664062	-812.4360961914065	129.4005432128907	233.1591796874999	-682.1784667968751	21.9854907989502	295.5357055664062	-661.6848144531251	33.15240097045899	236.2994232177734	-702.1400756835939	26.73718070983887	183.6040039062499	-396.3752746582033	863.9334106445315	474.7299804687501	-285.0033569335939	452.9879150390626	419.0739135742188	-285.0432434082032	455.8264160156251	280.6632995605469	-290.6921997070314	399.7413635253907	419.4873046875001	-224.4889678955079	403.9939880371095	367.6439819335938	-213.0320892333986	64.4462356567383	367.7439575195313	-197.015594482422	76.80004882812501	282.6116943359376	-244.731185913086	16.73836326599121	320.7923889160156	-66.03546142578129	30.0573902130127	277.8974914550782	-59.0981063842774	43.39240646362305	333.9361267089844	-95.62360382080084	24.33410835266114	385.3137512207032	-444.9320678710939	1422.798583984375	266.9843444824219	-526.8402709960939	1203.516967773438	263.3251953125	-296.2182617187501	1127.563232421875	281.1582946777344	-331.2210693359376	1346.176391601563	277.3511657714844	-530.4856567382814	1235.947265625	178.980239868164	-489.6477661132814	1375.885620117188	202.7200622558594	-448.9791259765626	1381.50244140625	135.3041229248047	-392.7769165039064	1365.52197265625	93.09216308593747	-350.5513916015626	1050.662841796875	39.43370819091793	-360.4790039062501	1037.68798828125	127.8686294555664	-353.1344604492188	1012.929626464844	73.61594390869138	-129.9844207763672	938.6188964843752	111.5004348754883	-166.1405181884766	901.3283691406252	54.25361633300781	-53.65944671630862	902.8572387695315	118.0048446655274	-115.2230224609375	833.373962402344	71.96410369873047	-541.9755249023439	1234.310791015625	347.3982543945312	-494.0169982910158	1374.5478515625	336.5599670410156	-467.9629516601564	1375.041625976563	418.1242370605469	-424.4451599121095	1373.006958007813	454.9367370605469	-486.4648437500002	1062.078857421875	496.7705383300782	-464.3050231933595	1047.8369140625	415.4096984863282	-493.0444335937502	1042.202514648438	461.7870178222657	-411.8896484375002	829.6412353515627	543.9569091796876	-485.441131591797	835.0352172851565	539.0054931640625	-406.6912536621095	739.6521606445314	565.6552124023439	-498.1551818847658	754.7653808593751	526.5435791015625	
67	0.66	-302.9453125000001	921.674011230469	168.2614135742188	-493.2003784179689	943.4396972656252	236.5578765869141	-492.2943725585939	949.0385742187502	346.0184936523438	-303.417938232422	937.975036621094	414.0153503417969	-393.0510559082032	859.945739746094	104.3077774047851	-469.599334716797	451.3048400878907	153.6435546875	-492.8573303222658	450.6351623535157	289.3964538574219	-521.6736450195314	424.1146850585939	149.2183837890625	-470.8067321777345	368.9198913574219	206.4593200683594	-743.9595947265626	152.823226928711	183.6923217773437	-725.5098876953126	152.6174468994141	268.9649353027343	-800.8853149414065	142.0353546142578	230.7783050537109	-681.4594116210939	26.15019798278809	294.6611022949219	-659.9865112304689	34.62628555297852	235.7074584960937	-699.1450805664064	30.63714027404786	182.9661865234374	-382.5056457519532	867.6699829101565	475.8757934570313	-276.7420349121095	454.3342590332032	420.7854309082032	-277.9415283203126	456.9794311523439	282.5074768066406	-282.9882812500001	401.1243896484376	421.2950134277344	-217.5781097412111	404.3823852539064	368.8638000488282	-211.9055938720704	64.44023895263673	368.1070556640626	-196.2270965576173	76.65655517578126	282.8757019042969	-244.6450195312501	17.19013404846192	321.2451477050781	-65.57060241699223	27.11626052856446	277.6277770996094	-57.90584182739263	40.50638961791993	333.7904968261719	-95.20513153076178	22.47883033752442	386.0729370117189	-432.0505981445314	1424.598754882813	268.580078125	-513.6694946289064	1205.126342773438	264.2524108886719	-282.8657836914064	1129.96044921875	282.2709045410156	-318.3030700683595	1348.198486328125	278.7187194824219	-517.4219360351564	1238.072021484375	180.3091735839843	-476.7688598632814	1377.795288085938	204.1976623535156	-436.1242980957032	1383.554931640625	136.7570037841797	-379.9610290527344	1367.718017578125	94.4665832519531	-340.6548767089844	1052.36083984375	41.21767044067379	-349.9252319335938	1039.923583984375	130.1927642822265	-343.9040222167969	1014.765258789063	75.64231872558591	-122.0534133911133	935.8189697265627	111.8307800292969	-159.472396850586	899.2589111328127	54.96957397460937	-46.41108703613283	898.4068603515627	117.5779647827149	-109.8262405395508	830.288513183594	72.25178527832031	-528.7366943359376	1235.947509765625	348.6859130859375	-480.985076904297	1376.186645507813	338.1485290527344	-454.8982543945314	1376.641723632813	419.6272888183594	-411.2718200683595	1374.732543945313	456.4038085937501	-472.0946044921877	1063.6826171875	498.2636718750001	-449.9309692382814	1049.6982421875	416.8056945800782	-478.734344482422	1043.837890625	463.2786865234376	-397.5327758789064	831.1853027343752	545.1260375976564	-471.1042785644533	836.8145141601565	540.3134155273438	-392.7764892578127	740.9492187500001	566.8038940429689	-484.4098205566408	756.7706909179689	528.0219116210938	
68	0.67	-289.9190673828126	923.0398559570315	169.8060455322266	-479.8145751953127	945.2664184570315	236.7656097412109	-479.0859680175783	951.647155761719	346.517333984375	-290.199188232422	941.0882568359377	414.7021484375001	-378.2262573242188	860.5281372070315	105.3281784057617	-447.0924682617189	450.1565551757814	153.6410675048828	-468.0382385253908	447.6963500976564	289.4163208007812	-499.7202453613282	424.2853088378907	148.8217010498047	-449.2993469238282	367.4853820800782	204.9900512695312	-730.9943847656251	161.896224975586	181.4993743896484	-712.3586425781251	159.8983917236328	266.6308898925781	-787.6719360351565	155.0570526123047	228.4903717041015	-679.7921142578126	31.12510490417481	293.5359802246094	-657.4077148437501	36.65937805175782	234.9083404541015	-695.0785522460939	35.52584075927735	182.1636047363281	-368.7031250000001	871.383483886719	477.0819702148438	-269.0476684570314	455.628631591797	422.5313720703126	-271.368621826172	458.0666503906251	284.3927307128906	-275.9122619628907	402.4693603515626	423.1265563964844	-211.2084960937501	404.754364013672	370.2062988281251	-210.9623107910157	64.52672576904298	368.5522155761719	-195.6367950439454	76.71997833251955	283.2295837402344	-244.4525909423829	17.56635856628418	321.73095703125	-65.27834320068364	25.15878677368165	277.4499816894532	-56.94087219238287	38.5285758972168	333.7780456542969	-94.82209014892584	21.28595924377442	386.866668701172	-419.2267456054689	1426.423217773438	270.0910949707031	-500.6273803710939	1206.804443359375	265.1542053222656	-269.6662597656251	1132.3984375	283.3310852050781	-305.4543762207032	1350.225219726563	279.9627990722656	-504.4715270996095	1240.231079101563	181.5583953857422	-463.9811096191407	1379.736206054688	205.607666015625	-423.3978881835939	1385.63623046875	138.1392059326172	-367.2832031250001	1369.953735351563	95.75740051269528	-331.0068969726563	1054.120727539063	43.00983428955075	-339.4283447265626	1042.314086914063	132.5292205810547	-334.9014587402344	1016.687561035156	77.69614410400388	-114.5500030517579	932.6324462890627	111.9044799804688	-153.4330139160157	896.893005371094	55.54571151733398	-39.73703765869143	893.3292236328127	116.7802124023438	-105.2622909545899	826.8425903320315	72.32588958740234	-515.5725708007814	1237.641235351563	349.9157104492188	-467.999237060547	1377.866455078125	339.6705627441406	-441.8455810546877	1378.290283203125	421.0566101074219	-398.098846435547	1376.521240234375	457.7796630859376	-457.7055969238283	1065.343139648438	499.7689819335938	-435.6072998046877	1051.565063476563	418.2375183105469	-464.4071655273439	1045.460571289063	464.8224487304688	-382.7673339843751	832.9051513671877	546.3596191406251	-456.3697814941408	838.6387329101565	541.7425537109376	-378.2449951171876	742.4481201171876	568.0143432617189	-470.1121826171877	758.7746582031251	529.6412353515625	
